# File created by Blade
# Date/Time:  Thu Jan 22 19:13:14 2015
# Frame Rate: 120.000 fps
#------------------------------------------------------
:FULLY-SPECIFIED
:DEGREES
1650
root -0.000506 25.164663 -4.028037 18.625219 -24.818312 24.055882
RightUpLeg -99.563411 -50.102243 6.542077
RightLeg 87.300364 -0.000000 -0.000000
RightFoot -30.595700 -2.694195 4.466818
RightToeBase 0.013799 -0.000000 -0.000000
LeftUpLeg -12.134951 25.473971 8.205990
LeftLeg 2.286230 -0.000000 -0.000000
LeftFoot -5.746003 1.948789 -45.092525
LeftToeBase 11.253049 -0.000000 -0.000000
Spine 1.546128 14.068985 26.222216
RightShoulder -15.006216 -8.144399 -19.577709
RightArm 21.884555 42.745288 60.793569
RightForeArm 26.565867 -0.000000 27.666932
RightHand 19.317354 0.000000 5.491299
RightHandThumb1 -24.326973 -0.000000 -32.862282
LeftShoulder -26.333467 4.732585 36.163392
LeftArm -2.530783 -43.260047 -14.595280
LeftForeArm -5.540432 -0.000000 6.201104
LeftHand -2.606119 -0.000000 -0.264886
LeftHandThumb1 -26.253704 0.000000 33.147579
Head -15.410211 6.353156 -8.793101
1651
root 0.002644 25.144249 -4.037429 18.671185 -24.891116 24.278651
RightUpLeg -99.925550 -50.022437 6.494502
RightLeg 87.439929 -0.000000 -0.000000
RightFoot -30.565150 -2.856322 4.429443
RightToeBase -0.133992 -0.000000 0.000000
LeftUpLeg -12.283716 25.643918 7.934449
LeftLeg 2.258650 -0.000000 -0.000000
LeftFoot -5.550960 1.823271 -45.235736
LeftToeBase 11.194786 -0.000000 -0.000000
Spine 1.739747 14.061335 26.411670
RightShoulder -14.933112 -8.138420 -19.520029
RightArm 21.922454 42.602918 60.735972
RightForeArm 26.346018 -0.000000 27.566570
RightHand 19.357668 -0.000000 5.692636
RightHandThumb1 -24.326973 -0.000000 -32.862282
LeftShoulder -26.348985 4.660365 36.252299
LeftArm -2.502338 -43.305165 -14.525220
LeftForeArm -5.364685 -0.000000 6.250607
LeftHand -2.600496 0.000000 -0.323056
LeftHandThumb1 -26.253704 0.000000 33.147579
Head -15.585234 6.476728 -8.758506
1652
root 0.014669 25.125650 -4.045929 18.713363 -24.972282 24.549449
RightUpLeg -100.345604 -49.989904 6.463148
RightLeg 87.565941 -0.000000 -0.000000
RightFoot -30.555279 -2.951375 4.335239
RightToeBase -0.163589 -0.000000 0.000000
LeftUpLeg -12.452742 25.793594 7.590076
LeftLeg 2.222471 -0.000000 -0.000000
LeftFoot -5.398913 1.720160 -45.373425
LeftToeBase 11.178781 -0.000000 -0.000000
Spine 1.898283 14.077176 26.551480
RightShoulder -14.813065 -8.046461 -19.511159
RightArm 21.648043 42.273420 60.410186
RightForeArm 26.433981 -0.000000 27.561377
RightHand 19.250517 -0.000000 5.781437
RightHandThumb1 -24.326973 -0.000000 -32.862282
LeftShoulder -26.343575 4.648792 36.359377
LeftArm -2.426099 -43.160512 -14.534390
LeftForeArm -5.458333 -0.000000 6.301955
LeftHand -2.612868 -0.000000 -0.298558
LeftHandThumb1 -26.253704 0.000000 33.147579
Head -15.707148 6.590937 -8.687435
1653
root 0.017717 25.103542 -4.054753 18.763642 -25.030811 24.759339
RightUpLeg -100.669546 -49.936535 6.373938
RightLeg 87.740608 -0.000000 -0.000000
RightFoot -30.530107 -2.977785 4.361368
RightToeBase -0.164881 -0.000000 0.000000
LeftUpLeg -12.593445 25.996558 7.321706
LeftLeg 2.162014 -0.000000 -0.000000
LeftFoot -5.178363 1.578554 -45.494016
LeftToeBase 11.031576 -0.000000 -0.000000
Spine 2.078029 14.062685 26.744990
RightShoulder -14.735447 -8.084329 -19.450723
RightArm 21.645904 42.044722 60.281373
RightForeArm 26.404743 0.000000 27.519304
RightHand 19.282933 -0.000000 6.491268
RightHandThumb1 -24.326973 -0.000000 -32.862282
LeftShoulder -26.372192 4.603769 36.432725
LeftArm -2.355103 -43.091971 -14.485068
LeftForeArm -5.439607 -0.000000 6.362245
LeftHand -2.611145 -0.000000 -0.294199
LeftHandThumb1 -26.253704 0.000000 33.147579
Head -15.879875 6.780045 -8.648426
1654
root 0.024740 25.083749 -4.062599 18.813861 -25.097825 24.978359
RightUpLeg -101.022486 -49.894291 6.321414
RightLeg 87.889191 -0.000000 -0.000000
RightFoot -30.519990 -3.043340 4.331853
RightToeBase -0.227622 -0.000000 0.000000
LeftUpLeg -12.729325 26.169631 7.034190
LeftLeg 2.085464 -0.000000 -0.000000
LeftFoot -5.005573 1.478810 -45.531333
LeftToeBase 10.959625 -0.000000 -0.000000
Spine 2.258005 14.013720 26.926753
RightShoulder -14.606058 -8.037852 -19.424157
RightArm 21.499702 41.716160 59.991296
RightForeArm 26.545993 -0.000000 27.422688
RightHand 19.253942 -0.000000 6.554045
RightHandThumb1 -24.326973 -0.000000 -32.862282
LeftShoulder -26.398418 4.544036 36.546100
LeftArm -2.364464 -42.944564 -14.404345
LeftForeArm -5.437179 0.000000 6.415541
LeftHand -2.577797 -0.000000 -0.277774
LeftHandThumb1 -26.253704 0.000000 33.147579
Head -16.045839 7.009218 -8.560087
1655
root 0.034470 25.064312 -4.070073 18.877243 -25.172512 25.220222
RightUpLeg -101.411705 -49.857032 6.268564
RightLeg 88.029092 -0.000000 -0.000000
RightFoot -30.496590 -3.064063 4.316550
RightToeBase -0.263761 -0.000000 0.000000
LeftUpLeg -12.885535 26.367095 6.708132
LeftLeg 1.993410 -0.000000 -0.000000
LeftFoot -4.788378 1.355369 -45.595526
LeftToeBase 10.855215 -0.000000 -0.000000
Spine 2.392168 14.031687 27.085089
RightShoulder -14.560130 -8.034312 -19.414070
RightArm 21.479478 41.439768 59.854334
RightForeArm 26.443232 0.000000 27.341554
RightHand 19.136822 -0.000000 6.857129
RightHandThumb1 -24.326973 -0.000000 -32.862282
LeftShoulder -26.397188 4.533881 36.604224
LeftArm -2.321970 -42.948108 -14.358891
LeftForeArm -5.389168 -0.000000 6.545722
LeftHand -2.575258 -0.000000 -0.313148
LeftHandThumb1 -26.253704 0.000000 33.147579
Head -16.152387 7.192321 -8.486001
